<svg xmlns="http://www.w3.org/2000/svg" width="1024" height="1024" viewBox="0 0 1024 1024" fill="none"><mask id="app-icon-light-occlude" maskUnits="userSpaceOnUse" x="0" y="0" width="1024" height="1024"><rect width="1024" height="1024" fill="#fff"/><path d="M 223 157 L 562 157 A 157 157 0 0 1 719 314 L 719 375 A 157 157 0 0 1 562 532 L 418 532 L 418 820 A 52 52 0 0 1 366 872 L 224 872 A 52 52 0 0 1 172 820 L 172 208 A 51 51 0 0 1 223 157 Z M 172 532 L 418 532" fill="#000" stroke="#000" stroke-width="22" stroke-linecap="round" stroke-linejoin="round"/></mask>
    <g mask="url(#app-icon-light-occlude)"><rect x="345" y="313" width="547" height="545" rx="69" fill="#fbfbfd" stroke="#8b8b97" stroke-width="17"/><rect x="256" y="240" width="547" height="545" rx="69" fill="#ffffff" stroke="#5c5c66" stroke-width="17"/><path d="M 477 694 L 602 694" stroke="#5c5c66" stroke-width="15" stroke-linecap="round" stroke-linejoin="round" fill="none"/><path d="M 477 740 L 508 740" stroke="#5c5c66" stroke-width="15" stroke-linecap="round" stroke-linejoin="round" fill="none"/><path d="M 530 740 L 631 740" stroke="#5c5c66" stroke-width="15" stroke-linecap="round" stroke-linejoin="round" fill="none"/></g>
    <path d="M 223 157 L 562 157 A 157 157 0 0 1 719 314 L 719 375 A 157 157 0 0 1 562 532 L 418 532 L 418 820 A 52 52 0 0 1 366 872 L 224 872 A 52 52 0 0 1 172 820 L 172 208 A 51 51 0 0 1 223 157 Z M 172 532 L 418 532" fill="#ffffff" stroke="#0b0b0c" stroke-width="22" stroke-linecap="round" stroke-linejoin="round"/>
    <path d="M 256 250 L 352 307 L 256 371" stroke="#0b0b0c" stroke-width="24" stroke-linecap="round" stroke-linejoin="round" fill="none"/>
    <path d="M 365 367 L 448 367" stroke="#0b0b0c" stroke-width="24" stroke-linecap="round" stroke-linejoin="round" fill="none"/>
    <path d="M 234 694 L 326 694" stroke="#0b0b0c" stroke-width="15" stroke-linecap="round" stroke-linejoin="round" fill="none"/>
    <path d="M 236 740 L 260 740" stroke="#0b0b0c" stroke-width="15" stroke-linecap="round" stroke-linejoin="round" fill="none"/>
    <path d="M 283 740 L 352 740" stroke="#0b0b0c" stroke-width="15" stroke-linecap="round" stroke-linejoin="round" fill="none"/>
    <path d="M 237 773 L 275 773" stroke="#0b0b0c" stroke-width="15" stroke-linecap="round" stroke-linejoin="round" fill="none"/></svg>